HIERARCHY
ROOT SpineBase
{
  OFFSET 0.000000 0.000000 0.000000
  CHANNELS 6 Xposition Yposition Zposition Zrotation Xrotation Yrotation
  JOINT SpineMid
  {
    OFFSET 0.000000 27.159377 0.000000
    CHANNELS 3 Zrotation Xrotation Yrotation
    JOINT SpineShoulder
    {
      OFFSET 0.029675 20.239404 -0.564388
      CHANNELS 3 Zrotation Xrotation Yrotation
      JOINT Neck
      {
        OFFSET -0.081388 6.737721 -0.452709
        CHANNELS 3 Zrotation Xrotation Yrotation
        JOINT Head
        {
          OFFSET 2.461595 12.655218 -0.010538
          CHANNELS 3 Zrotation Xrotation Yrotation
          End Site
          {
            OFFSET 0 0 0
          }
        }
      }
      JOINT ShoulderLeft
      {
        OFFSET -10.978815 -3.047588 -8.105780
        CHANNELS 3 Zrotation Xrotation Yrotation
        JOINT ElbowLeft
        {
          OFFSET -4.735701 -21.219323 -2.737272
          CHANNELS 3 Zrotation Xrotation Yrotation
          JOINT WristLeft
          {
            OFFSET 1.297518 -19.824180 -4.962282
            CHANNELS 3 Zrotation Xrotation Yrotation
            JOINT HandLeft
            {
              OFFSET 1.661419 -7.329073 0.046011
              CHANNELS 3 Zrotation Xrotation Yrotation
              JOINT HandTipLeft
              {
                OFFSET 0.024880 -6.496849 -0.606830
                CHANNELS 3 Zrotation Xrotation Yrotation
                End Site
                {
                  OFFSET 0 0 0
                }
              }
              JOINT ThumbLeft
              {
                OFFSET -2.759372 -0.714761 -2.146037
                CHANNELS 3 Zrotation Xrotation Yrotation
                End Site
                {
                  OFFSET 0 0 0
                }
              }
            }
          }
        }
      }
      JOINT ShoulderRight
      {
        OFFSET 12.153102 -3.441083 5.153037
        CHANNELS 3 Zrotation Xrotation Yrotation
        JOINT ElbowRight
        {
          OFFSET 2.763820 -27.658216 5.705029
          CHANNELS 3 Zrotation Xrotation Yrotation
          JOINT WristRight
          {
            OFFSET -12.954468 21.514145 -2.661781
            CHANNELS 3 Zrotation Xrotation Yrotation
            JOINT HandRight
            {
              OFFSET -2.853615 6.788520 0.815515
              CHANNELS 3 Zrotation Xrotation Yrotation
              JOINT HandTipRight
              {
                OFFSET 0.673143 1.284854 -0.140050
                CHANNELS 3 Zrotation Xrotation Yrotation
                End Site
                {
                  OFFSET 0 0 0
                }
              }
              JOINT ThumbRight
              {
                OFFSET 0.433535 -2.848126 -3.035157
                CHANNELS 3 Zrotation Xrotation Yrotation
                End Site
                {
                  OFFSET 0 0 0
                }
              }
            }
          }
        }
      }
    }
  }
  JOINT HipLeft
  {
    OFFSET -5.374944 1.060389 -5.439467
    CHANNELS 3 Zrotation Xrotation Yrotation
    JOINT KneeLeft
    {
      OFFSET -4.732975 -30.197694 0.073605
      CHANNELS 3 Zrotation Xrotation Yrotation
      JOINT AnkleLeft
      {
        OFFSET -0.090164 -33.463634 8.497258
        CHANNELS 3 Zrotation Xrotation Yrotation
        JOINT FootLeft
        {
          OFFSET 3.239732 -1.311076 -11.769281
          CHANNELS 3 Zrotation Xrotation Yrotation
          End Site
          {
            OFFSET 0 0 0
          }
        }
      }
    }
  }
  JOINT HipRight
  {
    OFFSET 5.039165 0.480855 -0.831919
    CHANNELS 3 Zrotation Xrotation Yrotation
    JOINT KneeRight
    {
      OFFSET -0.126259 -25.244948 2.341490
      CHANNELS 3 Zrotation Xrotation Yrotation
      JOINT AnkleRight
      {
        OFFSET -9.269676 -37.542642 5.563792
        CHANNELS 3 Zrotation Xrotation Yrotation
        JOINT FootRight
        {
          OFFSET -2.707087 -4.534683 -7.652518
          CHANNELS 3 Zrotation Xrotation Yrotation
          End Site
          {
            OFFSET 0 0 0
          }
        }
      }
    }
  }
}
MOTION
Frames: 9
Frame Time: 0.033333
21.257049 68.040888 364.320504 4.823773 -0.332484 -7.686457 0.738982 -1.041480 7.906359 -0.858011 -0.336554 0.155426 2.105542 21.789924 -5.575097 0.000000 0.000000 0.000000 40.030621 44.917438 -36.533889 106.989472 45.344112 -41.676196 57.208232 11.677322 -167.356075 28.729695 -1.160813 -39.580916 0.000000 0.000000 0.000000 0.000000 0.000000 0.000000 56.159310 25.630097 -0.323607 -78.048545 -7.580465 -29.384169 26.686864 0.943808 0.144050 43.469630 12.812812 -3.673055 0.000000 0.000000 0.000000 0.000000 0.000000 0.000000 2.408373 1.894900 7.411125 -11.897799 0.726524 -1.062310 3.186667 -7.933041 -3.412092 0.000000 0.000000 0.000000 -5.328306 -1.958615 7.618394 3.421073 -1.089289 1.096025 12.027628 11.500973 -30.375807 0.000000 0.000000 0.000000
21.093238 68.191890 364.483099 4.704467 -0.488385 -8.366200 0.607996 -0.624136 8.563643 -1.349904 -0.052564 0.113146 1.776345 21.446241 -5.340837 0.000000 0.000000 0.000000 39.381884 45.229340 -35.777557 104.906708 46.164740 -39.594954 57.069876 13.724860 -170.473498 33.687805 -3.667071 -80.573953 0.000000 0.000000 0.000000 0.000000 0.000000 0.000000 54.571769 25.966901 0.013573 -79.154088 -8.891282 -31.604969 32.181169 4.308577 0.380496 33.163347 10.917274 -1.299810 0.000000 0.000000 0.000000 0.000000 0.000000 0.000000 2.786883 2.265932 8.046931 -12.009990 0.500856 -1.012333 3.508099 -5.534454 -1.530150 0.000000 0.000000 0.000000 -4.725380 -0.202175 8.377920 2.782884 -2.755991 1.162862 12.195041 15.723048 -31.655869 0.000000 0.000000 0.000000
20.991218 68.321729 364.580369 4.068905 -0.506464 -8.788764 0.110042 -0.306685 8.934570 -0.776156 -0.166125 0.107338 4.297820 21.004786 -5.664153 0.000000 0.000000 0.000000 37.173580 45.320644 -33.980921 107.809840 43.786979 -35.772670 60.523353 10.626059 -166.896519 44.021816 -4.416613 -109.497781 0.000000 0.000000 0.000000 0.000000 0.000000 0.000000 52.657385 26.494624 0.073628 -78.621925 -9.986224 -32.817242 34.732277 3.352383 -0.216377 37.646103 11.384041 0.003442 0.000000 0.000000 0.000000 0.000000 0.000000 0.000000 3.530887 2.519568 8.431902 -11.876998 0.283428 -0.941652 2.484658 -8.442400 -4.248230 0.000000 0.000000 0.000000 -4.098441 -0.121925 8.802392 2.670054 -2.632730 1.109873 13.443267 15.616134 -33.545511 0.000000 0.000000 0.000000
20.973623 68.442750 364.677840 3.437494 -0.343734 -9.339275 -0.409805 -0.169314 9.437773 -0.391752 -0.027479 0.087537 7.552339 20.250322 -5.997618 0.000000 0.000000 0.000000 34.728211 44.826212 -31.575060 109.200282 42.084100 -33.069945 50.339485 4.151082 166.573664 35.567527 10.317230 -96.945814 0.000000 0.000000 0.000000 0.000000 0.000000 0.000000 51.030588 26.436181 0.568713 -76.945258 -11.130241 -33.115554 30.522343 -0.402964 -0.443308 41.744374 13.176319 -0.077312 0.000000 0.000000 0.000000 0.000000 0.000000 0.000000 4.086563 2.622783 8.952147 -11.439198 -0.081481 -0.840033 1.281041 -10.933843 -6.794106 0.000000 0.000000 0.000000 -3.447680 -0.218938 9.343000 2.693175 -2.604283 1.106224 11.503998 5.207979 -27.885942 0.000000 0.000000 0.000000
20.919463 68.559019 364.710666 2.565232 -0.010572 -10.007495 -0.982359 -0.068614 10.049018 0.097485 0.080843 0.069995 12.085451 18.960836 -6.298189 0.000000 0.000000 0.000000 32.229387 43.824577 -28.821903 112.642181 39.857222 -31.786811 43.781029 1.202446 151.879635 28.908401 16.245028 -86.836435 0.000000 0.000000 0.000000 0.000000 0.000000 0.000000 50.227830 26.088987 1.221353 -76.031432 -12.346964 -33.735050 29.032123 0.519905 0.030968 44.758903 12.569551 0.187461 0.000000 0.000000 0.000000 0.000000 0.000000 0.000000 4.997767 2.449988 9.640694 -11.059104 -0.259470 -0.739783 0.119188 -12.881503 -8.957115 0.000000 0.000000 0.000000 -2.528087 -0.435233 9.998128 2.729073 -2.613419 1.114932 11.765011 -4.030157 -25.604609 0.000000 0.000000 0.000000
20.881552 68.657596 364.727273 1.609063 0.298939 -11.066838 -1.521836 -0.602100 11.054644 -0.000000 0.000000 0.000000 18.730624 18.651527 -6.964247 0.000000 0.000000 0.000000 31.295447 43.354327 -26.868471 116.256968 36.604587 -28.711919 47.400181 -3.442743 158.462477 33.999079 14.132694 -82.363210 0.000000 0.000000 0.000000 0.000000 0.000000 0.000000 50.797476 27.327941 0.781530 -75.204002 -13.786798 -34.774250 29.221653 1.291573 0.153269 48.022549 10.576528 2.698909 0.000000 0.000000 0.000000 0.000000 0.000000 0.000000 5.942062 2.285838 10.740973 -10.756026 -0.316329 -0.674950 -0.725040 -14.152131 -10.451949 0.000000 0.000000 0.000000 -1.521836 -0.602100 11.054644 2.776138 -2.644512 1.131530 12.708074 -11.064573 -25.019003 0.000000 0.000000 0.000000
20.903508 68.711594 364.751824 0.871000 0.638544 -12.240231 -1.655314 -0.152337 12.199484 1.101762 0.270618 0.065407 20.320780 16.368960 -6.476396 0.000000 0.000000 0.000000 28.394246 41.503660 -24.495615 118.722686 33.952298 -26.530984 27.281588 -5.427694 116.952954 7.378499 15.007671 -35.895694 0.000000 0.000000 0.000000 0.000000 0.000000 0.000000 49.777690 28.069376 1.150559 -74.484883 -15.570183 -35.934306 29.594576 2.777060 0.243411 48.998451 9.811551 3.273288 0.000000 0.000000 0.000000 0.000000 0.000000 0.000000 6.547519 2.028295 11.975908 -10.205007 -0.391903 -0.584010 -1.321976 -14.390327 -11.196114 0.000000 0.000000 0.000000 -0.147423 -0.100367 12.297454 2.122304 -3.241599 1.109415 15.893169 -12.407011 -32.402590 0.000000 0.000000 0.000000
20.996579 68.751650 364.760882 0.226619 0.961748 -13.502920 -1.495226 -0.149210 13.449252 1.216311 0.219973 0.063042 22.483375 15.701297 -6.450989 0.000000 0.000000 0.000000 25.998232 39.582841 -22.032756 118.059325 33.254656 -28.404887 39.356700 -2.690161 136.208304 12.695207 15.229801 -33.862787 0.000000 0.000000 0.000000 0.000000 0.000000 0.000000 47.783704 29.213548 1.014963 -73.716838 -17.358860 -37.582031 33.533957 4.387095 -0.172720 44.234636 10.470854 2.506790 0.000000 0.000000 0.000000 0.000000 0.000000 0.000000 6.903412 1.714285 13.314200 -9.671798 -0.318518 -0.546165 -1.319365 -13.779216 -10.687028 0.000000 0.000000 0.000000 0.389747 0.289019 13.560131 2.378800 -4.014450 1.236885 16.971171 -11.330945 -36.090396 0.000000 0.000000 0.000000
21.160912 68.748143 364.753438 -0.032570 1.135315 -14.677862 -0.742004 -0.245771 14.644590 1.290745 -0.082880 0.081081 19.684400 17.083717 -6.691825 0.000000 0.000000 0.000000 23.871164 38.734731 -20.806385 119.615340 31.454216 -28.243220 49.058969 -3.310224 155.841836 8.037905 13.917744 3.527806 0.000000 0.000000 0.000000 0.000000 0.000000 0.000000 44.793559 31.245136 0.193036 -72.524591 -18.609348 -38.752023 38.779754 6.297348 -0.643887 44.158288 8.838866 4.380255 0.000000 0.000000 0.000000 0.000000 0.000000 0.000000 6.727494 1.395068 14.557689 -8.952857 -0.317216 -0.502561 -1.017307 -12.177714 -9.295068 0.000000 0.000000 0.000000 0.176765 0.262236 14.692489 2.826789 -4.165640 1.280558 16.591468 -5.930559 -36.369739 0.000000 0.000000 0.000000
